<?xml version="1.0" ?>

<!-- Uploaded to: SVG Repo, www.svgrepo.com, Generator: SVG Repo Mixer Tools -->
<svg width="800px" height="800px" viewBox="0 0 64 64" enable-background="new 0 0 64 64" id="Filled_Outline_00000087397764462717629230000011401247782193659528_" version="1.1" xml:space="preserve" xmlns="http://www.w3.org/2000/svg" xmlns:xlink="http://www.w3.org/1999/xlink">

<g>

<g>

<path d="M41,17h-0.1c-2.705-1.27-5.714-2-8.9-2s-6.195,0.73-8.9,2H23C10.85,17,1,26.85,1,39v0    c0,12.15,9.85,22,22,22h0.1c2.705,1.27,5.714,2,8.9,2s6.195-0.73,8.9-2H41c12.15,0,22-9.85,22-22v0C63,26.85,53.15,17,41,17z" fill="#FF6D1F"/>

<path d="M21,4L21,4c0,1.657,1.343,3,3,3h0c2.761,0,5,2.239,5,5v3h6v-3c0-6.075-4.925-11-11-11h0    C22.343,1,21,2.343,21,4z" fill="#A69D24"/>

<path d="M47,37l0,15l-3,3l-3-3l-3,3l-3-3l-3,3l-3-3l-3,3l-3-3l-3,3l-3-3l0-15l3,3l3-3l3,3l3-3l3,3l3-3l3,3l3-3l3,3    L47,37z M23,25L23,25c-2.209,0-4,1.791-4,4v4c0,0,2-2,4-2s4,2,4,2v-4C27,26.791,25.209,25,23,25z M41,25L41,25    c-2.209,0-4,1.791-4,4v4c0,0,2-2,4-2s4,2,4,2v-4C45,26.791,43.209,25,41,25z" fill="#732002"/>

</g>

<g>

<path d="M47.383,36.076c-0.374-0.155-0.804-0.07-1.09,0.217L44,38.586l-2.293-2.293    c-0.391-0.391-1.023-0.391-1.414,0L38,38.586l-2.293-2.293c-0.391-0.391-1.023-0.391-1.414,0L32,38.586l-2.293-2.293    c-0.391-0.391-1.023-0.391-1.414,0L26,38.586l-2.293-2.293c-0.391-0.391-1.023-0.391-1.414,0L20,38.586l-2.293-2.293    c-0.287-0.287-0.716-0.372-1.09-0.217C16.244,36.231,16,36.596,16,37v15c0,0.265,0.105,0.52,0.293,0.707l3,3    c0.391,0.391,1.023,0.391,1.414,0L23,53.414l2.293,2.293c0.391,0.391,1.023,0.391,1.414,0L29,53.414l2.293,2.293    c0.391,0.391,1.023,0.391,1.414,0L35,53.414l2.293,2.293c0.391,0.391,1.023,0.391,1.414,0L41,53.414l2.293,2.293    C43.488,55.902,43.744,56,44,56s0.512-0.098,0.707-0.293l3-3C47.895,52.52,48,52.265,48,52V37    C48,36.596,47.757,36.231,47.383,36.076z M46,51.586l-2,2l-2.293-2.293C41.512,51.098,41.256,51,41,51s-0.512,0.098-0.707,0.293    L38,53.586l-2.293-2.293c-0.391-0.391-1.023-0.391-1.414,0L32,53.586l-2.293-2.293c-0.391-0.391-1.023-0.391-1.414,0L26,53.586    l-2.293-2.293c-0.391-0.391-1.023-0.391-1.414,0L20,53.586l-2-2V39.414l1.293,1.293c0.391,0.391,1.023,0.391,1.414,0L23,38.414    l2.293,2.293c0.391,0.391,1.023,0.391,1.414,0L29,38.414l2.293,2.293c0.391,0.391,1.023,0.391,1.414,0L35,38.414l2.293,2.293    c0.391,0.391,1.023,0.391,1.414,0L41,38.414l2.293,2.293c0.391,0.391,1.023,0.391,1.414,0L46,39.414V51.586z" fill="#260A04"/>

<path d="M18.616,33.922c0.373,0.156,0.804,0.072,1.089-0.214C20.185,33.233,21.71,32,23,32    s2.815,1.233,3.294,1.708c0.191,0.19,0.446,0.291,0.706,0.291c0.129,0,0.26-0.025,0.384-0.077C27.756,33.767,28,33.404,28,33v-4    c0-2.757-2.243-5-5-5s-5,2.243-5,5v4C18,33.404,18.244,33.767,18.616,33.922z M20,29c0-1.654,1.346-3,3-3s3,1.346,3,3v1.968    C25.167,30.458,24.108,30,23,30s-2.167,0.458-3,0.968V29z" fill="#260A04"/>

<path d="M36.616,33.922c0.372,0.155,0.803,0.071,1.09-0.214C38.185,33.233,39.71,32,41,32s2.815,1.233,3.294,1.708    c0.191,0.19,0.446,0.291,0.706,0.291c0.13,0,0.26-0.025,0.384-0.077C45.757,33.767,46,33.404,46,33v-4c0-2.757-2.243-5-5-5    s-5,2.243-5,5v4C36,33.404,36.243,33.767,36.616,33.922z M38,29c0-1.654,1.346-3,3-3s3,1.346,3,3v1.968    C43.166,30.458,42.107,30,41,30s-2.166,0.458-3,0.968V29z" fill="#260A04"/>

<path d="M64,39c0-12.63-10.233-22.911-22.843-22.996c-1.623-0.746-3.351-1.3-5.157-1.633V12    c0-6.617-5.383-12-12-12c-2.206,0-4,1.794-4,4s1.794,4,4,4s4,1.794,4,4v2.371c-1.805,0.333-3.534,0.887-5.157,1.633    C10.233,16.089,0,26.37,0,39s10.233,22.911,22.843,22.996C25.633,63.279,28.733,64,32,64s6.367-0.721,9.157-2.004    C53.767,61.911,64,51.63,64,39z M24,6c-1.103,0-2-0.897-2-2s0.897-2,2-2c5.514,0,10,4.486,10,10v2.095    C33.341,14.035,32.675,14,32,14s-1.341,0.035-2,0.095V12C30,8.691,27.309,6,24,6z M45.218,59.574C50.547,55.555,54,49.174,54,42    h-2c0,11.028-8.972,20-20,20c-11.028,0-20-8.972-20-20h-2c0,7.174,3.453,13.555,8.782,17.574C9.217,57.616,2,49.135,2,39    s7.217-18.616,16.782-20.574C13.453,22.445,10,28.826,10,36h2c0-11.028,8.972-20,20-20c11.028,0,20,8.972,20,20h2    c0-7.174-3.453-13.555-8.782-17.574C54.782,20.384,62,28.865,62,39S54.782,57.616,45.218,59.574z" fill="#260A04"/>

</g>

</g>

</svg>